<svg width="40" height="40" viewBox="0 0 40 40" fill="none" xmlns="http://www.w3.org/2000/svg">
<path d="M36.6687 17.5001C36.7908 17.4203 36.8853 17.3048 36.9391 17.1692C36.9928 17.0336 37.0033 16.8847 36.9691 16.7429C36.9348 16.6011 36.8575 16.4734 36.7478 16.3774C36.6381 16.2813 36.5013 16.2215 36.3562 16.2063C35.8038 14.3423 34.8741 12.6117 33.625 11.122C33.7505 10.9757 33.8312 10.7963 33.8574 10.6053C33.8837 10.4143 33.8543 10.2198 33.7729 10.045C33.6914 9.87031 33.5614 9.72274 33.3983 9.62C33.2351 9.51725 33.0459 9.46369 32.8531 9.46572C32.6262 9.4639 32.4056 9.54002 32.2281 9.68134C30.2078 7.8496 27.7203 6.61232 25.0406 6.10634C24.2026 5.68058 23.3243 5.33931 22.4187 5.08759C22.4308 5.01209 22.4381 4.93589 22.4406 4.85947C22.4453 4.43862 22.2909 4.03152 22.0082 3.71972C21.7255 3.40793 21.3354 3.21447 20.9161 3.17812C20.4968 3.14176 20.0792 3.26518 19.7471 3.52366C19.4149 3.78214 19.1927 4.15658 19.125 4.57197C18.9437 4.57197 18.7593 4.57197 18.575 4.57197C15.7176 4.57054 12.9258 5.42854 10.5625 7.03447C10.4381 6.85726 10.2603 6.72445 10.0551 6.65539C9.84993 6.58634 9.62804 6.58466 9.42182 6.65061C9.21561 6.71655 9.03587 6.84667 8.90882 7.02198C8.78177 7.19728 8.71407 7.4086 8.71558 7.62509C8.71532 7.86903 8.80424 8.10464 8.96558 8.28759C7.4875 9.62151 6.29845 11.2442 5.47182 13.0555C4.64518 14.8668 4.1985 16.8282 4.15933 18.8188C3.84114 18.9265 3.56224 19.1266 3.35823 19.3935C3.15421 19.6604 3.03433 19.982 3.01388 20.3173C2.99343 20.6526 3.07333 20.9864 3.24339 21.2761C3.41345 21.5658 3.66596 21.7983 3.96871 21.9438C3.979 25.3859 5.21923 28.7109 7.46558 31.3188C7.36547 31.4136 7.29633 31.5364 7.2672 31.6712C7.23806 31.8059 7.25031 31.9463 7.30232 32.074C7.35434 32.2017 7.4437 32.3107 7.5587 32.3867C7.6737 32.4627 7.80899 32.5023 7.94683 32.5001C8.11334 32.4995 8.2737 32.4372 8.39683 32.3251C10.8453 34.7038 14.0545 36.1424 17.4593 36.3876C20.5496 37.1727 23.8125 36.918 26.7435 35.6629C29.6746 34.4078 32.1106 32.2222 33.675 29.4438C33.9486 29.5371 34.2459 29.5343 34.5178 29.4359C34.7897 29.3376 35.0199 29.1495 35.1706 28.9027C35.3213 28.656 35.3834 28.3653 35.3467 28.0785C35.31 27.7917 35.1767 27.526 34.9687 27.3251C36.7259 24.3712 37.3312 20.8727 36.6687 17.5001ZM36.6156 20.172C36.6164 22.6142 35.9625 25.0121 34.7218 27.1157C35.3563 25.3126 35.6247 23.4011 35.5115 21.493C35.3983 19.585 34.9057 17.7186 34.0625 16.0032C33.5108 13.9969 32.5364 12.1318 31.2046 10.5332C29.8727 8.93455 28.2143 7.63932 26.3406 6.73447C28.4471 7.34689 30.3866 8.43048 32.0125 9.90322C31.8805 10.0948 31.8187 10.3262 31.8377 10.5581C31.8566 10.79 31.9551 11.0083 32.1165 11.1759C32.2779 11.3435 32.4923 11.4503 32.7233 11.478C32.9543 11.5058 33.1878 11.4529 33.3843 11.3282C34.5939 12.7716 35.4967 14.4463 36.0375 16.2501C35.8997 16.2983 35.7804 16.3884 35.6964 16.5078C35.6123 16.6271 35.5677 16.7697 35.5687 16.9157C35.5687 17.1039 35.6434 17.2843 35.7765 17.4173C35.9095 17.5504 36.0899 17.6251 36.2781 17.6251C36.3083 17.6268 36.3385 17.6268 36.3687 17.6251C36.5307 18.4634 36.6133 19.3151 36.6156 20.1688V20.172ZM21.5156 35.7751C21.4755 35.6023 21.3735 35.4502 21.2289 35.3475C21.0842 35.2448 20.9069 35.1988 20.7306 35.218C20.5543 35.2373 20.3911 35.3205 20.272 35.452C20.1529 35.5834 20.0861 35.754 20.0843 35.9313C20.083 35.9574 20.083 35.9834 20.0843 36.0095C19.5582 36.067 19.0293 36.0962 18.5 36.097C18.1625 36.097 17.8281 36.0813 17.5 36.0595C14.1065 35.1812 11.1566 33.0814 9.21558 30.1626C10.3819 31.1683 11.7017 31.9806 13.125 32.5688C15.2702 33.7873 17.6954 34.4269 20.1625 34.4251C20.3312 34.4251 20.4968 34.4251 20.6625 34.4251C22.3809 34.6033 24.1173 34.4806 25.7937 34.0626V34.0626C24.4701 34.862 23.0252 35.4404 21.5156 35.7751V35.7751ZM20.35 36.4845C19.9875 36.4845 19.6312 36.4345 19.2781 36.3907C19.5906 36.3907 19.9031 36.3438 20.1937 36.3095C20.2355 36.3762 20.2884 36.4354 20.35 36.4845V36.4845ZM4.78433 22.1095C5.17963 22.091 5.55579 21.9339 5.84683 21.6657C6.01385 23.0483 6.37906 24.3997 6.93121 25.6782C6.96871 25.8407 7.00933 25.9907 7.05308 26.1626C6.98562 26.0646 6.89496 25.9848 6.78919 25.9302C6.68342 25.8757 6.56581 25.8482 6.44683 25.8501C6.3526 25.8499 6.25922 25.868 6.17183 25.9032C5.53016 24.7105 5.0629 23.4318 4.78433 22.1063V22.1095ZM34.2625 19.8782C34.2639 22.8334 33.3454 25.7157 31.6343 28.1251C32.5705 26.1748 33.0544 24.0384 33.05 21.8751C33.05 21.6532 33.05 21.4345 33.0312 21.2126C33.2627 21.1686 33.4712 21.0441 33.6197 20.861C33.7681 20.678 33.8469 20.4482 33.842 20.2126C33.8371 19.977 33.7489 19.7507 33.5931 19.5739C33.4372 19.3971 33.2237 19.2813 32.9906 19.247C32.9906 19.1938 32.9906 19.1376 32.9906 19.0813C32.9918 16.9745 32.5366 14.8923 31.6562 12.9782C32.4927 13.9214 33.199 14.9724 33.7562 16.1032C34.092 17.3324 34.2623 18.6009 34.2625 19.8751V19.8782ZM7.22808 25.5751C6.54179 22.6627 6.80233 19.6073 7.97183 16.8532C7.4362 19.0471 7.43864 21.3379 7.97893 23.5307C8.51922 25.7234 9.58138 27.7531 11.075 29.447C10.9345 29.6248 10.8595 29.8454 10.8625 30.072C10.8645 30.2029 10.8923 30.3321 10.9443 30.4523C10.9963 30.5725 11.0714 30.6812 11.1655 30.7723C11.2595 30.8634 11.3705 30.9352 11.4923 30.9834C11.614 31.0315 11.744 31.0553 11.875 31.0532C12.0951 31.0522 12.3086 30.9774 12.4812 30.8407C13.5096 31.7409 14.6581 32.494 15.8937 33.0782C14.995 32.9012 14.1157 32.6364 13.2687 32.2876C10.5826 30.7618 8.46317 28.4067 7.22808 25.5751V25.5751ZM10.9781 31.0938C10.1249 30.5446 9.33376 29.9044 8.61871 29.1845C8.27227 28.5637 7.97451 27.9169 7.72808 27.2501C8.58108 28.7105 9.6819 30.0112 10.9812 31.0938H10.9781ZM6.05621 19.4063C6.14319 16.6542 7.02563 13.9863 8.59683 11.7251C10.0506 10.311 11.7893 9.22322 13.6968 8.53447C11.3927 10.145 9.60751 12.3916 8.55933 15.0001C6.96176 17.6777 6.28355 20.8043 6.62808 23.9032C6.37962 23.0623 6.20911 22.2004 6.11871 21.3282C6.30842 21.0385 6.4042 20.6973 6.39302 20.3512C6.38183 20.005 6.26423 19.6707 6.05621 19.3938V19.4063ZM20.7656 6.53134C21.1408 6.52956 21.5043 6.40068 21.7968 6.16572C21.9468 6.16572 22.1093 6.16572 22.25 6.16572C22.9906 6.16632 23.7302 6.22273 24.4625 6.33447C24.8062 6.44384 25.1406 6.56884 25.4718 6.70634C25.9732 6.98842 26.4564 7.30152 26.9187 7.64384C26.7516 7.5733 26.572 7.53717 26.3906 7.53759C26.1029 7.53739 25.8224 7.62786 25.589 7.79616C25.3556 7.96446 25.1812 8.20202 25.0906 8.47509C24.2982 8.24631 23.4881 8.08429 22.6687 7.99072C20.4512 7.32471 18.1059 7.20251 15.8312 7.63447C17.1467 6.99075 18.5523 6.55032 20 6.32822C20.2349 6.45709 20.4977 6.52681 20.7656 6.53134V6.53134ZM18.5781 33.3407C18.0968 33.3407 17.6187 33.3157 17.15 33.2688C15.5139 32.6646 14.0009 31.7689 12.6843 30.6251C12.7869 30.4763 12.8471 30.3023 12.8584 30.1219C12.8698 29.9415 12.8318 29.7614 12.7487 29.6009C12.6655 29.4404 12.5403 29.3055 12.3864 29.2107C12.2325 29.1159 12.0557 29.0647 11.875 29.0626C11.6759 29.0625 11.4813 29.1212 11.3156 29.2313C9.64945 27.3385 8.53818 25.0225 8.10423 22.5385C7.67028 20.0544 7.9305 17.4988 8.85621 15.1532C9.87397 13.4417 11.2386 11.962 12.8625 10.8095C12.955 10.93 13.083 11.0183 13.2285 11.0621C13.374 11.1059 13.5295 11.1029 13.6732 11.0535C13.8168 11.0041 13.9413 10.9109 14.0291 10.7869C14.1169 10.6629 14.1636 10.5145 14.1625 10.3626C14.161 10.2538 14.1342 10.1468 14.0843 10.0501C16.2055 8.8515 18.601 8.22275 21.0375 8.22509C21.5595 8.22599 22.0811 8.2552 22.6 8.31259C23.4562 8.57083 24.286 8.90985 25.0781 9.32509C25.1647 9.60385 25.3382 9.8476 25.5732 10.0208C25.8082 10.1939 26.0924 10.2874 26.3843 10.2876C26.4662 10.2873 26.5478 10.2789 26.6281 10.2626C29.6972 12.3957 31.8032 15.6513 32.4906 19.3251C32.296 19.3951 32.1282 19.5242 32.0107 19.6943C31.8932 19.8644 31.8319 20.067 31.8353 20.2738C31.8388 20.4805 31.9068 20.681 32.0299 20.8471C32.1531 21.0132 32.325 21.1366 32.5218 21.2001C32.0355 24.5588 30.36 27.6314 27.8 29.8594C25.24 32.0873 21.9655 33.3226 18.5718 33.3407H18.5781ZM24.3281 8.60009C24.5656 8.65634 24.8 8.71884 25.0343 8.78759C25.0343 8.82509 25.0343 8.86259 25.0343 8.90322C25.0343 8.94384 25.0343 8.91884 25.0343 8.92822C24.7906 8.81259 24.5593 8.70322 24.3218 8.60009H24.3281ZM27.0062 10.1282C27.1853 10.039 27.3423 9.91087 27.4656 9.75322C28.7403 10.3998 29.9106 11.2341 30.9375 12.2282C32.0137 14.1905 32.6122 16.3788 32.6843 18.6157C31.8787 15.1921 29.8591 12.1766 27 10.1282H27.0062ZM27.6312 9.50322C27.7428 9.27725 27.7879 9.02427 27.7613 8.77367C27.7348 8.52308 27.6376 8.28516 27.4812 8.08759C28.604 9.01206 29.5788 10.1028 30.3718 11.322C29.5295 10.6087 28.6091 9.99335 27.6281 9.48759L27.6312 9.50322ZM18.5093 7.69697C19.3116 7.6988 20.1123 7.76779 20.9031 7.90322C18.4408 7.91838 16.0233 8.56389 13.8812 9.77822C13.7542 9.67717 13.5967 9.62209 13.4343 9.62197C13.2412 9.62197 13.056 9.69868 12.9195 9.83523C12.7829 9.97178 12.7062 10.157 12.7062 10.3501C12.7075 10.4037 12.7137 10.457 12.725 10.5095C11.5812 11.3164 10.5584 12.2824 9.68746 13.3782C10.914 11.2368 12.6743 9.44961 14.7968 8.19072C16.0073 7.8637 17.2555 7.69769 18.5093 7.69697V7.69697ZM17.0656 33.5751C17.5093 33.7376 17.9625 33.8876 18.4218 34.0032C17.4389 33.8809 16.4719 33.6536 15.5375 33.3251C16.042 33.4357 16.5521 33.5192 17.0656 33.5751V33.5751ZM18.3156 33.647H18.575C20.9189 33.6489 23.2269 33.0714 25.2937 31.9657C25.1804 32.1984 25.1216 32.4538 25.1218 32.7126C25.1216 32.8668 25.1426 33.0204 25.1843 33.1688C23.7433 33.732 22.2179 34.0489 20.6718 34.1063C19.8741 34.0183 19.085 33.8647 18.3125 33.647H18.3156ZM25.2968 33.4688C25.3574 33.5932 25.4329 33.7097 25.5218 33.8157C24.632 34.0196 23.7248 34.1389 22.8125 34.172C23.6594 34.0142 24.49 33.7789 25.2937 33.4688H25.2968ZM28.3 31.8751C28.6687 31.6188 29.025 31.347 29.3687 31.0595C29.0648 31.4196 28.7425 31.7639 28.4031 32.0907C28.3741 32.0159 28.3385 31.9437 28.2968 31.8751H28.3ZM28.1218 31.6188C27.9642 31.4321 27.7681 31.2816 27.547 31.1775C27.3259 31.0734 27.0849 31.0183 26.8406 31.0157C29.9195 28.8358 32.0333 25.547 32.7375 21.8407C32.7375 21.8595 32.7375 21.8782 32.7375 21.897C32.739 24.6232 31.9499 27.2914 30.4656 29.5782C29.7625 30.3421 28.9775 31.0264 28.125 31.6188H28.1218ZM31.175 12.0345C30.2954 10.4506 29.1299 9.0435 27.7375 7.88447C30.2223 9.49308 32.1454 11.8345 33.2406 14.5845C32.6495 13.6591 31.9554 12.8037 31.1718 12.0345H31.175ZM22.25 5.84072H22.1093C22.1267 5.82233 22.1423 5.80246 22.1562 5.78134L22.55 5.84697L22.25 5.84072ZM19.625 6.07509C17.8833 6.38343 16.211 7.00154 14.6875 7.90009C12.8422 8.40308 11.1144 9.2654 9.60308 10.4376C10.8252 9.04013 12.3124 7.89885 13.9784 7.07977C15.6444 6.26069 17.4564 5.78008 19.3093 5.66572C19.3918 5.81826 19.4984 5.95649 19.625 6.07509V6.07509ZM5.75308 19.0938C5.45456 18.8566 5.08438 18.7277 4.70308 18.7282H4.64371C5.13136 16.6054 6.1024 14.6237 7.48121 12.9376C6.45678 14.8365 5.86655 16.9392 5.75308 19.0938V19.0938ZM7.17496 26.5938C7.35918 27.1912 7.58258 27.7758 7.84371 28.3438C7.50823 27.9569 7.19521 27.551 6.90621 27.1282C6.98983 27.0628 7.05828 26.9801 7.10683 26.8856C7.15539 26.7912 7.18289 26.6874 7.18746 26.5813L7.17496 26.5938ZM28.4968 32.4438C29.3383 31.6485 30.0821 30.7558 30.7125 29.7845C32.1995 28.1696 33.3036 26.2404 33.9425 24.1401C34.5815 22.0399 34.7389 19.8227 34.4031 17.6532C35.4855 20.683 35.4944 23.9927 34.4281 27.0282C34.3161 26.997 34.2006 26.9802 34.0843 26.9782C33.825 26.9767 33.5714 27.0548 33.3578 27.2018C33.1441 27.3488 32.9807 27.5578 32.8894 27.8005C32.7982 28.0433 32.7835 28.3082 32.8474 28.5596C32.9113 28.8109 33.0507 29.0366 33.2468 29.2063C31.9383 30.7221 30.328 31.9482 28.5187 32.8063C28.5187 32.7876 28.5187 32.7657 28.5187 32.747C28.5211 32.6413 28.5138 32.5357 28.4968 32.4313V32.4438ZM23.1843 5.66572C22.8937 5.60322 22.6031 5.54697 22.3093 5.50322C22.3093 5.46884 22.3281 5.43447 22.3406 5.40009C22.6281 5.46884 22.9093 5.55634 23.1875 5.65322L23.1843 5.66572ZM9.19683 8.47822C9.357 8.57556 9.54066 8.62742 9.72808 8.62822C9.86187 8.62822 9.99434 8.60187 10.1179 8.55067C10.2415 8.49947 10.3538 8.42443 10.4484 8.32983C10.543 8.23523 10.6181 8.12293 10.6693 7.99933C10.7205 7.87573 10.7468 7.74325 10.7468 7.60947C10.7468 7.50331 10.7299 7.39783 10.6968 7.29697C13.0155 5.7111 15.7596 4.86358 18.5687 4.86572C18.7437 4.86572 18.9187 4.86572 19.0906 4.86572C19.096 5.02929 19.1244 5.1913 19.175 5.34697C17.0256 5.49673 14.9373 6.12774 13.0647 7.19335C11.192 8.25895 9.58287 9.73188 8.35621 11.5032C6.52957 13.2849 5.20394 15.5158 4.51246 17.972C4.79784 14.322 6.47622 10.9216 9.19996 8.47509L9.19683 8.47822ZM8.57183 32.0595C8.6043 31.9801 8.62128 31.8952 8.62183 31.8095C8.62183 31.6288 8.55006 31.4555 8.4223 31.3278C8.29454 31.2 8.12126 31.1282 7.94058 31.1282C7.87026 31.1295 7.8006 31.1421 7.73433 31.1657C5.53965 28.635 4.31676 25.406 4.28433 22.0563L4.45933 22.0907C4.74803 23.4807 5.23865 24.821 5.91558 26.0688C5.8184 26.1721 5.75363 26.3016 5.72929 26.4413C5.70496 26.581 5.72212 26.7248 5.77866 26.8548C5.8352 26.9848 5.92863 27.0955 6.0474 27.1729C6.16616 27.2504 6.30503 27.2914 6.44683 27.2907C6.51133 27.2897 6.57542 27.2803 6.63746 27.2626C7.14866 28.0191 7.7293 28.7264 8.37183 29.3751C10.0239 32.328 12.6541 34.6123 15.8093 35.8345C13.0817 35.3082 10.5679 33.9948 8.57808 32.0563L8.57183 32.0595ZM21.25 36.497C21.379 36.3967 21.4704 36.2557 21.5093 36.097C23.1356 35.7555 24.6907 35.136 26.1062 34.2657C26.329 34.3674 26.5707 34.4206 26.8156 34.422C27.1925 34.4216 27.5586 34.2963 27.8566 34.0655C28.1546 33.8348 28.3677 33.5118 28.4625 33.147C30.1878 32.3576 31.7444 31.2423 33.0468 29.8626C31.7883 31.8632 30.0502 33.5179 27.9901 34.6764C25.93 35.835 23.6132 36.4608 21.25 36.497V36.497Z" fill="white"/>
</svg>
